<svg width="18" height="18" viewBox="0 0 18 18" fill="none" xmlns="http://www.w3.org/2000/svg">
<path d="M16.707 1H9.59354C8.16329 1 6.81126 1.64572 5.92181 2.75359L1.90476 7.75712C1.31889 8.48686 1 9.39127 1 10.3231V10.971C1 12.892 2.10552 14.4493 4.04762 14.4493M11.5495 14.4493H17M13.4249 11.2029H17M12.0183 8.42029H6.07706C5.24164 8.42029 4.82325 7.4212 5.41399 6.83689L8.22718 4.05428C8.40304 3.88033 8.64155 3.78261 8.89025 3.78261H14.3626M10.1429 14.6812C10.1429 15.9618 9.09327 17 7.79854 17C6.5038 17 5.45421 15.9618 5.45421 14.6812C5.45421 13.4005 6.5038 12.3623 7.79854 12.3623C9.09327 12.3623 10.1429 13.4005 10.1429 14.6812Z" stroke="black" stroke-width="0.914286" stroke-linecap="round"/>
</svg>
