<svg width="82" height="37" viewBox="0 0 82 37" fill="none" xmlns="http://www.w3.org/2000/svg">
<path d="M35.359 1H19.7984C16.6697 1 13.7121 2.41251 11.7665 4.83597L2.97915 15.7812C1.69757 17.3775 1 19.3559 1 21.3943V22.8116C1 27.0138 3.41832 30.4203 7.66667 30.4203M24.0769 30.4203H48.6923M65.1026 30.4203H75.8718M28.1795 23.3188H81M81 6.07246H54.7582C54.367 6.07246 53.9839 6.18312 53.6542 6.39137L46.5025 10.9085C46.2558 11.0643 45.9783 11.1661 45.6886 11.207L37.1202 12.4178C36.1096 12.5606 35.359 13.4167 35.359 14.4264V15.2029C35.359 16.3235 36.2774 17.2319 37.4103 17.2319H41.5128M54.7582 17.2319H58.9487M72.2821 17.2319H75.8718M25.1026 17.2319H12.1061C10.2786 17.2319 9.36337 15.0464 10.6556 13.7682L16.8095 7.68123C17.1941 7.30072 17.7159 7.08696 18.2599 7.08696H30.2308M21 30.9275C21 33.729 18.704 36 15.8718 36C13.0396 36 10.7436 33.729 10.7436 30.9275C10.7436 28.1261 13.0396 25.8551 15.8718 25.8551C18.704 25.8551 21 28.1261 21 30.9275ZM51.7692 17.2319C51.7692 19.1929 50.1621 20.7826 48.1795 20.7826C46.1969 20.7826 44.5897 19.1929 44.5897 17.2319C44.5897 15.2709 46.1969 13.6812 48.1795 13.6812C50.1621 13.6812 51.7692 15.2709 51.7692 17.2319ZM69.2051 17.2319C69.2051 19.1929 67.5979 20.7826 65.6154 20.7826C63.6328 20.7826 62.0256 19.1929 62.0256 17.2319C62.0256 15.2709 63.6328 13.6812 65.6154 13.6812C67.5979 13.6812 69.2051 15.2709 69.2051 17.2319ZM62.0256 30.9275C62.0256 33.729 59.7297 36 56.8974 36C54.0652 36 51.7692 33.729 51.7692 30.9275C51.7692 28.1261 54.0652 25.8551 56.8974 25.8551C59.7297 25.8551 62.0256 28.1261 62.0256 30.9275Z" stroke="black" stroke-width="2" stroke-linecap="round"/>
</svg>
