<svg width="34" height="34" viewBox="0 0 34 34" fill="none" xmlns="http://www.w3.org/2000/svg">
<path d="M32.4139 1H18.1871C15.3266 1 12.6225 2.29144 10.8436 4.50718L2.80951 14.5142C1.63778 15.9737 1 17.7825 1 19.6462V20.942C1 24.784 3.21104 27.8986 7.09524 27.8986M22.0989 27.8986H33M25.8498 21.4058H33M23.0366 15.8406H11.1541C9.48328 15.8406 8.64651 13.8424 9.82798 12.6738L15.4544 7.10856C15.8061 6.76066 16.2831 6.56522 16.7805 6.56522H27.7253M19.2857 28.3623C19.2857 30.9236 17.1865 33 14.5971 33C12.0076 33 9.90843 30.9236 9.90843 28.3623C9.90843 25.801 12.0076 23.7246 14.5971 23.7246C17.1865 23.7246 19.2857 25.801 19.2857 28.3623Z" stroke="black" stroke-width="1.82857" stroke-linecap="round"/>
</svg>
